# Blender v2.93.1 OBJ File: 'VirtualWorld.blend'
# www.blender.org
mtllib bench.mtl
o Cube
v 19.410076 1.932764 -81.240387
v 19.405422 1.932764 -81.459999
v 19.065840 2.001265 -81.452805
v 19.070494 2.001265 -81.233192
v 18.774357 0.043742 -81.226921
v 18.769705 0.043742 -81.446533
v 19.109283 -0.024759 -81.453728
v 19.113937 -0.024759 -81.234116
vt 0.625000 0.500000
vt 0.875000 0.500000
vt 0.875000 0.750000
vt 0.625000 0.750000
vt 0.375000 0.750000
vt 0.625000 1.000000
vt 0.375000 1.000000
vt 0.375000 0.000000
vt 0.625000 0.000000
vt 0.625000 0.250000
vt 0.375000 0.250000
vt 0.125000 0.500000
vt 0.375000 0.500000
vt 0.125000 0.750000
vn 0.1977 0.9803 -0.0042
vn -0.9885 0.1496 0.0209
vn -0.0212 0.0000 -0.9998
vn -0.1977 -0.9803 0.0042
vn 0.0212 -0.0000 0.9998
vn 0.9885 -0.1496 -0.0209
usemtl Material
s 1
f 1/1/1 2/2/1 3/3/1 4/4/1
f 5/5/2 4/4/2 3/6/2 6/7/2
f 6/8/3 3/9/3 2/10/3 7/11/3
f 7/12/4 8/13/4 5/5/4 6/14/4
f 8/13/5 1/1/5 4/4/5 5/5/5
f 7/11/6 2/10/6 1/1/6 8/13/6
o Cube.001
v 24.500996 2.063533 -81.371857
v 24.496344 2.063533 -81.591469
v 24.158428 1.984802 -81.584305
v 24.163082 1.984802 -81.364693
v 24.503441 0.036893 -81.371910
v 24.498787 0.036893 -81.591515
v 24.836700 0.115624 -81.598679
v 24.841352 0.115624 -81.379066
vt 0.625000 0.500000
vt 0.875000 0.500000
vt 0.875000 0.750000
vt 0.625000 0.750000
vt 0.375000 0.750000
vt 0.625000 1.000000
vt 0.375000 1.000000
vt 0.375000 0.000000
vt 0.625000 0.000000
vt 0.625000 0.250000
vt 0.375000 0.250000
vt 0.125000 0.500000
vt 0.375000 0.500000
vt 0.125000 0.750000
vn -0.2268 0.9739 0.0048
vn -0.9848 -0.1722 0.0209
vn -0.0212 -0.0000 -0.9998
vn 0.2268 -0.9739 -0.0048
vn 0.0212 -0.0000 0.9998
vn 0.9848 0.1722 -0.0209
usemtl Material
s 1
f 9/15/7 10/16/7 11/17/7 12/18/7
f 13/19/8 12/18/8 11/20/8 14/21/8
f 14/22/9 11/23/9 10/24/9 15/25/9
f 15/26/10 16/27/10 13/19/10 14/28/10
f 16/27/11 9/15/11 12/18/11 13/19/11
f 15/25/12 10/24/12 9/15/12 16/27/12
o Cube.002
v 19.356508 2.015268 -83.010643
v 19.351854 2.015268 -83.230255
v 19.012272 2.083769 -83.223061
v 19.016926 2.083769 -83.003448
v 18.720787 0.126250 -82.997177
v 18.716133 0.126250 -83.216782
v 19.055716 0.057746 -83.223976
v 19.060369 0.057746 -83.004372
vt 0.625000 0.500000
vt 0.875000 0.500000
vt 0.875000 0.750000
vt 0.625000 0.750000
vt 0.375000 0.750000
vt 0.625000 1.000000
vt 0.375000 1.000000
vt 0.375000 0.000000
vt 0.625000 0.000000
vt 0.625000 0.250000
vt 0.375000 0.250000
vt 0.125000 0.500000
vt 0.375000 0.500000
vt 0.125000 0.750000
vn 0.1976 0.9803 -0.0042
vn -0.9885 0.1496 0.0209
vn -0.0212 -0.0000 -0.9998
vn -0.1977 -0.9803 0.0042
vn 0.0212 -0.0000 0.9998
vn 0.9885 -0.1496 -0.0209
usemtl Material
s 1
f 17/29/13 18/30/13 19/31/13 20/32/13
f 21/33/14 20/32/14 19/34/14 22/35/14
f 22/36/15 19/37/15 18/38/15 23/39/15
f 23/40/16 24/41/16 21/33/16 22/42/16
f 24/41/17 17/29/17 20/32/17 21/33/17
f 23/39/18 18/38/18 17/29/18 24/41/18
o Cube.003
v 24.325089 2.056670 -83.113365
v 24.320435 2.056670 -83.332977
v 23.982519 1.977939 -83.325813
v 23.987173 1.977939 -83.106201
v 24.327534 0.030030 -83.113419
v 24.322880 0.030030 -83.333023
v 24.660791 0.108761 -83.340187
v 24.665445 0.108761 -83.120575
vt 0.625000 0.500000
vt 0.875000 0.500000
vt 0.875000 0.750000
vt 0.625000 0.750000
vt 0.375000 0.750000
vt 0.625000 1.000000
vt 0.375000 1.000000
vt 0.375000 0.000000
vt 0.625000 0.000000
vt 0.625000 0.250000
vt 0.375000 0.250000
vt 0.125000 0.500000
vt 0.375000 0.500000
vt 0.125000 0.750000
vn -0.2268 0.9739 0.0048
vn -0.9848 -0.1722 0.0209
vn -0.0212 -0.0000 -0.9998
vn 0.2268 -0.9739 -0.0048
vn 0.0212 -0.0000 0.9998
vn 0.9848 0.1722 -0.0209
usemtl Material.001
s 1
f 25/43/19 26/44/19 27/45/19 28/46/19
f 29/47/20 28/46/20 27/48/20 30/49/20
f 30/50/21 27/51/21 26/52/21 31/53/21
f 31/54/22 32/55/22 29/47/22 30/56/22
f 32/55/23 25/43/23 28/46/23 29/47/23
f 31/53/24 26/52/24 25/43/24 32/55/24
o Cube.004
v 18.790474 2.111238 -83.213234
v 24.647196 2.111239 -83.337341
v 24.647196 1.926104 -83.337341
v 18.790474 1.926103 -83.213234
v 24.654964 2.111239 -82.970741
v 24.654964 1.926104 -82.970741
v 18.798241 2.111238 -82.846634
v 18.798241 1.926103 -82.846634
vt 0.375000 0.000000
vt 0.375000 0.250000
vt 0.625000 0.250000
vt 0.625000 0.000000
vt 0.375000 0.500000
vt 0.625000 0.500000
vt 0.375000 0.750000
vt 0.625000 0.750000
vt 0.375000 1.000000
vt 0.625000 1.000000
vt 0.125000 0.500000
vt 0.125000 0.750000
vt 0.875000 0.750000
vt 0.875000 0.500000
vn -0.0212 0.0000 -0.9998
vn 0.9998 0.0000 -0.0212
vn 0.0212 0.0000 0.9998
vn -0.9998 0.0000 0.0212
vn -0.0000 1.0000 0.0000
vn 0.0000 -1.0000 0.0000
usemtl Material.006
s 1
f 33/57/25 34/58/25 35/59/25 36/60/25
f 34/58/26 37/61/26 38/62/26 35/59/26
f 37/61/27 39/63/27 40/64/27 38/62/27
f 39/63/28 33/65/28 36/66/28 40/64/28
f 34/67/29 33/68/29 39/63/29 37/61/29
f 38/62/30 40/64/30 36/69/30 35/70/30
o Cube.005
v 18.801880 2.111238 -82.674957
v 24.658602 2.111239 -82.799065
v 24.658602 1.926104 -82.799065
v 18.801880 1.926103 -82.674957
v 24.666370 2.111239 -82.432465
v 24.666370 1.926104 -82.432465
v 18.809649 2.111238 -82.308357
v 18.809649 1.926103 -82.308357
vt 0.375000 0.000000
vt 0.375000 0.250000
vt 0.625000 0.250000
vt 0.625000 0.000000
vt 0.375000 0.500000
vt 0.625000 0.500000
vt 0.375000 0.750000
vt 0.625000 0.750000
vt 0.375000 1.000000
vt 0.625000 1.000000
vt 0.125000 0.500000
vt 0.125000 0.750000
vt 0.875000 0.750000
vt 0.875000 0.500000
vn -0.0212 0.0000 -0.9998
vn 0.9998 0.0000 -0.0212
vn 0.0212 0.0000 0.9998
vn -0.9998 0.0000 0.0212
vn -0.0000 1.0000 0.0000
vn 0.0000 -1.0000 0.0000
usemtl Material.005
s 1
f 41/71/31 42/72/31 43/73/31 44/74/31
f 42/72/32 45/75/32 46/76/32 43/73/32
f 45/75/33 47/77/33 48/78/33 46/76/33
f 47/77/34 41/79/34 44/80/34 48/78/34
f 42/81/35 41/82/35 47/77/35 45/75/35
f 46/76/36 48/78/36 44/83/36 43/84/36
o Cube.006
v 18.814404 2.111238 -82.083885
v 24.671127 2.111239 -82.207993
v 24.671127 1.926104 -82.207993
v 18.814404 1.926103 -82.083885
v 24.678896 2.111239 -81.841393
v 24.678896 1.926104 -81.841393
v 18.822172 2.111238 -81.717293
v 18.822172 1.926103 -81.717293
vt 0.375000 0.000000
vt 0.375000 0.250000
vt 0.625000 0.250000
vt 0.625000 0.000000
vt 0.375000 0.500000
vt 0.625000 0.500000
vt 0.375000 0.750000
vt 0.625000 0.750000
vt 0.375000 1.000000
vt 0.625000 1.000000
vt 0.125000 0.500000
vt 0.125000 0.750000
vt 0.875000 0.750000
vt 0.875000 0.500000
vn -0.0212 0.0000 -0.9998
vn 0.9998 0.0000 -0.0212
vn 0.0212 0.0000 0.9998
vn -0.9998 0.0000 0.0212
vn -0.0000 1.0000 0.0000
vn 0.0000 -1.0000 0.0000
usemtl Material.004
s 1
f 49/85/37 50/86/37 51/87/37 52/88/37
f 50/86/38 53/89/38 54/90/38 51/87/38
f 53/89/39 55/91/39 56/92/39 54/90/39
f 55/91/40 49/93/40 52/94/40 56/92/40
f 50/95/41 49/96/41 55/91/41 53/89/41
f 54/90/42 56/92/42 52/97/42 51/98/42
o Cube.007
v 18.825306 2.111238 -81.569412
v 24.682030 2.111239 -81.693520
v 24.682030 1.926104 -81.693520
v 18.825306 1.926103 -81.569412
v 24.689796 2.111239 -81.326927
v 24.689796 1.926104 -81.326927
v 18.833075 2.111238 -81.202820
v 18.833075 1.926103 -81.202820
vt 0.375000 0.000000
vt 0.375000 0.250000
vt 0.625000 0.250000
vt 0.625000 0.000000
vt 0.375000 0.500000
vt 0.625000 0.500000
vt 0.375000 0.750000
vt 0.625000 0.750000
vt 0.375000 1.000000
vt 0.625000 1.000000
vt 0.125000 0.500000
vt 0.125000 0.750000
vt 0.875000 0.750000
vt 0.875000 0.500000
vn -0.0212 0.0000 -0.9998
vn 0.9998 0.0000 -0.0212
vn 0.0212 0.0000 0.9998
vn -0.9998 0.0000 0.0212
vn -0.0000 1.0000 0.0000
vn 0.0000 -1.0000 0.0000
usemtl Material.003
s 1
f 57/99/43 58/100/43 59/101/43 60/102/43
f 58/100/44 61/103/44 62/104/44 59/101/44
f 61/103/45 63/105/45 64/106/45 62/104/45
f 63/105/46 57/107/46 60/108/46 64/106/46
f 58/109/47 57/110/47 63/105/47 61/103/47
f 62/104/48 64/106/48 60/111/48 59/112/48
o Cube.008
v 19.417561 1.963485 -83.251007
v 19.461861 1.963485 -81.206711
v 19.461861 1.778349 -81.206711
v 19.417561 1.778349 -83.251007
v 18.870720 1.963485 -81.194077
v 18.870720 1.778349 -81.194077
v 18.826416 1.963485 -83.238373
v 18.826416 1.778349 -83.238373
vt 0.375000 0.000000
vt 0.375000 0.250000
vt 0.625000 0.250000
vt 0.625000 0.000000
vt 0.375000 0.500000
vt 0.625000 0.500000
vt 0.375000 0.750000
vt 0.625000 0.750000
vt 0.375000 1.000000
vt 0.625000 1.000000
vt 0.125000 0.500000
vt 0.125000 0.750000
vt 0.875000 0.750000
vt 0.875000 0.500000
vn 0.9998 0.0000 -0.0217
vn 0.0214 0.0000 0.9998
vn -0.9998 0.0000 0.0217
vn -0.0214 0.0000 -0.9998
vn -0.0000 1.0000 -0.0000
vn 0.0000 -1.0000 -0.0000
usemtl Material.012
s 1
f 65/113/49 66/114/49 67/115/49 68/116/49
f 66/114/50 69/117/50 70/118/50 67/115/50
f 69/117/51 71/119/51 72/120/51 70/118/51
f 71/119/52 65/121/52 68/122/52 72/120/52
f 66/123/53 65/124/53 71/119/53 69/117/53
f 70/118/54 72/120/54 68/125/54 67/126/54
o Cube.009
v 24.555367 1.963486 -83.359879
v 24.599667 1.963486 -81.315582
v 24.599667 1.778350 -81.315582
v 24.555367 1.778350 -83.359879
v 24.008524 1.963486 -81.302948
v 24.008524 1.778350 -81.302948
v 23.964224 1.963486 -83.347244
v 23.964224 1.778350 -83.347244
vt 0.375000 0.000000
vt 0.375000 0.250000
vt 0.625000 0.250000
vt 0.625000 0.000000
vt 0.375000 0.500000
vt 0.625000 0.500000
vt 0.375000 0.750000
vt 0.625000 0.750000
vt 0.375000 1.000000
vt 0.625000 1.000000
vt 0.125000 0.500000
vt 0.125000 0.750000
vt 0.875000 0.750000
vt 0.875000 0.500000
vn 0.9998 0.0000 -0.0217
vn 0.0214 0.0000 0.9998
vn -0.9998 0.0000 0.0217
vn -0.0214 0.0000 -0.9998
vn -0.0000 1.0000 0.0000
vn 0.0000 -1.0000 -0.0000
usemtl Material.013
s 1
f 73/127/55 74/128/55 75/129/55 76/130/55
f 74/128/56 77/131/56 78/132/56 75/129/56
f 77/131/57 79/133/57 80/134/57 78/132/57
f 79/133/58 73/135/58 76/136/58 80/134/58
f 74/137/59 73/138/59 79/133/59 77/131/59
f 78/132/60 80/134/60 76/139/60 75/140/60
o Cube.010
v 18.876865 2.917003 -83.278358
v 24.526539 2.917004 -83.398079
v 24.527435 2.281941 -83.355820
v 18.877762 2.281940 -83.236099
v 24.528477 2.938083 -83.306717
v 24.529371 2.303019 -83.264458
v 18.878803 2.938082 -83.186996
v 18.879698 2.303018 -83.144737
vt 0.375000 0.000000
vt 0.375000 0.250000
vt 0.625000 0.250000
vt 0.625000 0.000000
vt 0.375000 0.500000
vt 0.625000 0.500000
vt 0.375000 0.750000
vt 0.625000 0.750000
vt 0.375000 1.000000
vt 0.625000 1.000000
vt 0.125000 0.500000
vt 0.125000 0.750000
vt 0.875000 0.750000
vt 0.875000 0.500000
vn -0.0211 -0.0664 -0.9976
vn 0.9998 0.0000 -0.0212
vn 0.0211 0.0664 0.9976
vn -0.9998 -0.0000 0.0212
vn -0.0048 0.9744 -0.2247
vn 0.0048 -0.9744 0.2247
usemtl Material.007
s 1
f 81/141/61 82/142/61 83/143/61 84/144/61
f 82/142/62 85/145/62 86/146/62 83/143/62
f 85/145/63 87/147/63 88/148/63 86/146/63
f 87/147/64 81/149/64 84/150/64 88/148/64
f 82/151/65 81/152/65 87/147/65 85/145/65
f 86/146/66 88/148/66 84/153/66 83/154/66
o Cube.011
v 18.875580 3.829910 -83.339104
v 24.525253 3.829911 -83.458817
v 24.526148 3.194844 -83.416565
v 18.876474 3.194844 -83.296844
v 24.527189 3.850990 -83.367455
v 24.528084 3.215923 -83.325203
v 18.877516 3.850989 -83.247742
v 18.878410 3.215922 -83.205482
vt 0.375000 0.000000
vt 0.375000 0.250000
vt 0.625000 0.250000
vt 0.625000 0.000000
vt 0.375000 0.500000
vt 0.625000 0.500000
vt 0.375000 0.750000
vt 0.625000 0.750000
vt 0.375000 1.000000
vt 0.625000 1.000000
vt 0.125000 0.500000
vt 0.125000 0.750000
vt 0.875000 0.750000
vt 0.875000 0.500000
vn -0.0211 -0.0664 -0.9976
vn 0.9998 -0.0000 -0.0212
vn 0.0211 0.0664 0.9976
vn -0.9998 0.0000 0.0212
vn -0.0048 0.9744 -0.2247
vn 0.0048 -0.9744 0.2247
usemtl Material.008
s 1
f 89/155/67 90/156/67 91/157/67 92/158/67
f 90/156/68 93/159/68 94/160/68 91/157/68
f 93/159/69 95/161/69 96/162/69 94/160/69
f 95/161/70 89/163/70 92/164/70 96/162/70
f 90/165/71 89/166/71 95/161/71 93/159/71
f 94/160/72 96/162/72 92/167/72 91/168/72
o Cube.012
v 18.874315 4.726341 -83.398750
v 24.523989 4.726342 -83.518471
v 24.524883 4.091276 -83.476212
v 18.875210 4.091275 -83.356491
v 24.525925 4.747418 -83.427109
v 24.526819 4.112354 -83.384850
v 18.876251 4.747417 -83.307388
v 18.877146 4.112353 -83.265129
vt 0.375000 0.000000
vt 0.375000 0.250000
vt 0.625000 0.250000
vt 0.625000 0.000000
vt 0.375000 0.500000
vt 0.625000 0.500000
vt 0.375000 0.750000
vt 0.625000 0.750000
vt 0.375000 1.000000
vt 0.625000 1.000000
vt 0.125000 0.500000
vt 0.125000 0.750000
vt 0.875000 0.750000
vt 0.875000 0.500000
vn -0.0211 -0.0664 -0.9976
vn 0.9998 0.0000 -0.0212
vn 0.0211 0.0664 0.9976
vn -0.9998 -0.0000 0.0212
vn -0.0048 0.9744 -0.2247
vn 0.0048 -0.9744 0.2247
usemtl Material.009
s 1
f 97/169/73 98/170/73 99/171/73 100/172/73
f 98/170/74 101/173/74 102/174/74 99/171/74
f 101/173/75 103/175/75 104/176/75 102/174/75
f 103/175/76 97/177/76 100/178/76 104/176/76
f 98/179/77 97/180/77 103/175/77 101/173/77
f 102/174/78 104/176/78 100/181/78 99/182/78
o Cube.013
v 24.421917 4.688967 -83.513077
v 24.426207 1.768440 -83.346405
v 24.424116 1.748917 -83.445045
v 24.419827 4.669447 -83.611725
v 23.835060 1.768238 -83.333862
v 23.832970 1.748715 -83.432510
v 23.830770 4.688765 -83.500542
v 23.828682 4.669245 -83.599182
vt 0.375000 0.000000
vt 0.375000 0.250000
vt 0.625000 0.250000
vt 0.625000 0.000000
vt 0.375000 0.500000
vt 0.625000 0.500000
vt 0.375000 0.750000
vt 0.625000 0.750000
vt 0.375000 1.000000
vt 0.625000 1.000000
vt 0.125000 0.500000
vt 0.125000 0.750000
vt 0.875000 0.750000
vt 0.875000 0.500000
vn 0.9998 0.0003 -0.0212
vn 0.0044 -0.9810 0.1941
vn -0.9998 -0.0003 0.0212
vn -0.0044 0.9810 -0.1940
vn 0.0212 0.0570 0.9982
vn -0.0211 -0.0570 -0.9982
usemtl Material.010
s 1
f 105/183/79 106/184/79 107/185/79 108/186/79
f 106/184/80 109/187/80 110/188/80 107/185/80
f 109/187/81 111/189/81 112/190/81 110/188/81
f 111/189/82 105/191/82 108/192/82 112/190/82
f 106/193/83 105/194/83 111/189/83 109/187/83
f 110/188/84 112/190/84 108/195/84 107/196/84
o Cube.014
v 19.603493 4.688966 -83.410973
v 19.607780 1.768440 -83.244301
v 19.605690 1.748917 -83.342941
v 19.601402 4.669446 -83.509621
v 19.016636 1.768237 -83.231758
v 19.014545 1.748714 -83.330406
v 19.012348 4.688764 -83.398438
v 19.010258 4.669244 -83.497078
vt 0.375000 0.000000
vt 0.375000 0.250000
vt 0.625000 0.250000
vt 0.625000 0.000000
vt 0.375000 0.500000
vt 0.625000 0.500000
vt 0.375000 0.750000
vt 0.625000 0.750000
vt 0.375000 1.000000
vt 0.625000 1.000000
vt 0.125000 0.500000
vt 0.125000 0.750000
vt 0.875000 0.750000
vt 0.875000 0.500000
vn 0.9998 0.0003 -0.0212
vn 0.0045 -0.9810 0.1941
vn -0.9998 -0.0003 0.0212
vn -0.0045 0.9810 -0.1940
vn 0.0212 0.0570 0.9981
vn -0.0212 -0.0570 -0.9981
usemtl Material.011
s 1
f 113/197/85 114/198/85 115/199/85 116/200/85
f 114/198/86 117/201/86 118/202/86 115/199/86
f 117/201/87 119/203/87 120/204/87 118/202/87
f 119/203/88 113/205/88 116/206/88 120/204/88
f 114/207/89 113/208/89 119/203/89 117/201/89
f 118/202/90 120/204/90 116/209/90 115/210/90
